# xmcd
#
# Track frame offsets:
#	150
#	16710
#	43072
#	60675
#	74701
#	88267
#	100847
#	117062
#	131917
#	149582
#	165879
#	181481
#	195398
#	212624
#	226447
#	242480
#	255277
#	268275
#	282784
#	296038
#
# Disc length: 4104 seconds
#
# Revision: 0
# Processed by: cddbd v1.4PL0 Copyright (c) Steve Scherf et al.
# Submitted via: dBpowerAMP V4.0
#
DISCID=29100614
DTITLE=The Amazing stroopwafels - Hard voor weinig
DYEAR=1900
DGENRE=Nederlands
TTITLE0=The Amazing stroopwafels - Het vak
TTITLE1=The Amazing stroopwafels - Voor de storm
TTITLE2=The Amazing stroopwafels - Geen leven op mars
TTITLE3=The Amazing stroopwafels - Mens,durf te leven
TTITLE4=The Amazing stroopwafels - Eindelijk vrij
TTITLE5=The Amazing stroopwafels - Fietsen
TTITLE6=The Amazing stroopwafes - Zwarte Nazareth
TTITLE7=The Amazing stroopwafels - Ik ben geen man
TTITLE8=The Amazing stroopwafels - De haren zestig
TTITLE9=The Amazing stroopwafels - 'T was grandioos
TTITLE10=The Amazing stroopwafels - Oude maasweg
TTITLE11=The Amazing stroopwafels - Santa Claus 'raus
TTITLE12=The Amazing stroopwafels - Vitrages
TTITLE13=The Amazing stroopwafels - Tropisch Nederland
TTITLE14=The Amazing stroopwafels - De groote leegte
TTITLE15=The Amazing stroopwafels - Bloemenman
TTITLE16=The Amazing stroopwafels - Stofzuigen
TTITLE17=The Amazing stroopwafels - Maastunnel
TTITLE18=The Amazing stroopwafels - Varkensvlees
TTITLE19=The Amazing stroopwafels - Oranje spinazie
EXTD=
EXTT0=
EXTT1=
EXTT2=
EXTT3=
EXTT4=
EXTT5=
EXTT6=
EXTT7=
EXTT8=
EXTT9=
EXTT10=
EXTT11=
EXTT12=
EXTT13=
EXTT14=
EXTT15=
EXTT16=
EXTT17=
EXTT18=
EXTT19=
PLAYORDER=
